<svg width="146" height="146" viewBox="0 0 146 146" fill="none" xmlns="http://www.w3.org/2000/svg">
<g clip-path="url(#clip0_41_1774)">
<path d="M73.0003 133.833C39.4021 133.833 12.167 106.598 12.167 72.9998C12.167 39.4016 39.4021 12.1665 73.0003 12.1665C106.599 12.1665 133.834 39.4016 133.834 72.9998C133.834 106.598 106.599 133.833 73.0003 133.833ZM42.5837 72.9998C42.5837 81.0668 45.7883 88.8034 51.4925 94.5077C57.1967 100.212 64.9333 103.416 73.0003 103.416C81.0673 103.416 88.8039 100.212 94.5082 94.5077C100.212 88.8034 103.417 81.0668 103.417 72.9998H91.2503C91.2503 77.84 89.3276 82.482 85.905 85.9045C82.4825 89.3271 77.8405 91.2498 73.0003 91.2498C68.1601 91.2498 63.5182 89.3271 60.0956 85.9045C56.6731 82.482 54.7503 77.84 54.7503 72.9998H42.5837Z" fill="#3B9E7A"/>
</g>
<defs>
<clipPath id="clip0_41_1774">
<rect width="146" height="146" fill="white"/>
</clipPath>
</defs>
</svg>
